<svg width="51" height="51" viewBox="0 0 51 51" fill="none" xmlns="http://www.w3.org/2000/svg">
<g clip-path="url(#clip0_205_305)">
<path d="M51 25.5C51 11.4167 39.5833 0 25.5 0C11.4167 0 0 11.4167 0 25.5C0 39.5833 11.4167 51 25.5 51C39.5833 51 51 39.5833 51 25.5Z" fill="#015F3F"/>
<path d="M49.9225 25.5C49.9225 12.0119 38.9882 1.07751 25.5 1.07751C12.0118 1.07751 1.07745 12.0119 1.07745 25.5C1.07745 38.9882 12.0118 49.9226 25.5 49.9226C38.9882 49.9226 49.9225 38.9882 49.9225 25.5Z" fill="white"/>
<path d="M48.8451 25.5C48.8451 12.6069 38.3932 2.15491 25.5 2.15491C12.6069 2.15491 2.15497 12.6069 2.15497 25.5C2.15497 38.3931 12.6069 48.8451 25.5 48.8451C38.3932 48.8451 48.8451 38.3931 48.8451 25.5Z" fill="#015F3F"/>
<path d="M12.9571 34.9208C13.8152 34.7533 15.5001 34.2407 18.0116 33.3824C20.5441 32.5244 22.4906 31.729 23.851 30.9965C25.2115 30.2639 26.5405 29.4687 27.8381 28.6104C29.1565 27.7315 30.402 26.8105 31.574 25.8479C32.767 24.885 33.8134 23.9013 34.7134 22.8966C35.6135 21.871 36.3249 20.856 36.8482 19.8515C37.3715 18.8259 37.6331 17.8317 37.6331 16.8689C37.6331 15.9899 37.4658 15.1423 37.1308 14.326C36.796 13.4888 36.2936 12.7563 35.6238 12.1284C34.9751 11.5005 34.1379 10.9982 33.1123 10.6215C32.1078 10.2448 30.9356 10.0564 29.5961 10.0564C28.0056 10.0564 26.2892 10.3075 24.4475 10.8098C22.6057 11.3122 20.7638 12.0028 18.922 12.8819C17.0803 13.74 15.3012 14.7446 13.585 15.8958C11.8688 17.0469 10.3514 18.2608 9.03282 19.5376C7.71426 20.8141 6.65731 22.1223 5.86199 23.4618C5.06667 24.8013 4.66901 26.0884 4.66901 27.3233C4.66901 27.8466 4.82598 28.3383 5.13991 28.7989C5.45387 29.2593 5.85153 29.4895 6.3329 29.4895C6.56313 29.4895 6.82476 29.4268 7.11776 29.3012L7.18055 29.2698C7.18055 29.2488 7.14915 29.2174 7.08637 29.1756C6.98173 29.1129 6.87707 29.0813 6.77243 29.0813C6.52128 29.0605 6.24919 28.9559 5.95617 28.7674C5.8306 28.6838 5.76781 28.5269 5.76781 28.2965C5.76781 27.5221 6.12362 26.5908 6.83522 25.5024C7.5259 24.3931 8.47819 23.2421 9.69211 22.0491C10.9269 20.856 12.3502 19.6632 13.9617 18.4701C15.5943 17.2771 17.3315 16.2097 19.1732 15.2679C21.015 14.326 22.9091 13.5621 24.8557 12.9761C26.823 12.39 28.7486 12.097 30.6322 12.097C31.5113 12.097 32.317 12.1493 33.0496 12.254C33.7821 12.3586 34.3994 12.5575 34.9019 12.8505C35.425 13.1226 35.8332 13.5098 36.1263 14.0121C36.4192 14.5144 36.5656 15.1527 36.5656 15.9271C36.5656 17.1201 36.1263 18.3864 35.2472 19.7259C34.3891 21.0654 33.2693 22.4049 31.8879 23.7444C30.5276 25.0628 28.5916 26.5385 26.0801 28.171C23.5894 29.7826 21.2871 30.9652 19.1732 31.7187C17.0803 32.4511 15.1966 32.8173 12.706 33.3824C19.3538 16.9681 15.9803 18.4701 15.9803 18.4701C13.585 22.8966 10.1002 34.8162 10.3514 35.0464C10.6025 35.2766 10.8328 35.3917 11.0421 35.3917C11.1258 35.3917 11.199 35.329 11.2618 35.2034C11.5339 35.1825 12.099 35.0883 12.9571 34.9208Z" fill="white"/>
<g clip-path="url(#clip1_205_305)">
<path d="M46.3478 27.5668C46.3702 27.522 46.4262 27.4884 46.5158 27.466C46.6054 27.4212 46.6502 27.466 46.6502 27.6004C46.6502 27.8245 46.6054 28.0037 46.5158 28.1381C46.4486 28.2501 46.4038 28.3173 46.3814 28.3397C45.2836 29.5271 44.2643 30.5801 43.3233 31.4986C42.4048 32.4172 41.5534 33.1789 40.7693 33.7838C40.0076 34.3887 39.4139 34.6911 38.9882 34.6911C38.6074 34.6911 38.2937 34.5007 38.0473 34.1198C37.8008 33.739 37.6776 33.3021 37.6776 32.8092C37.6776 32.4956 37.812 32.0475 38.0809 31.465C38.3497 30.8825 38.697 30.2328 39.1226 29.5159C38.6522 30.0088 38.1593 30.5017 37.644 30.9945C37.1511 31.465 36.6695 31.8907 36.199 32.2715C35.7509 32.63 35.3365 32.9213 34.9556 33.1453C34.5971 33.3917 34.3059 33.5149 34.0819 33.5149C33.9474 33.5149 33.757 33.4701 33.5106 33.3805C33.2865 33.3133 33.0513 33.1789 32.8049 32.9773C32.5808 32.798 32.3904 32.5404 32.2336 32.2043C32.0543 31.8459 31.9647 31.3978 31.9647 30.8601C31.9647 30.4121 32.0991 29.8968 32.368 29.3143C32.6368 28.7094 32.9953 28.1045 33.4434 27.4996C33.8914 26.8947 34.3955 26.301 34.9556 25.7185C35.5157 25.136 36.087 24.6207 36.6695 24.1727C37.2519 23.7022 37.8232 23.3325 38.3833 23.0637C38.9434 22.7725 39.4363 22.6268 39.862 22.6268C40.2204 22.6268 40.5453 22.694 40.8365 22.8285C41.1502 22.9629 41.419 23.1421 41.643 23.3661C41.8671 23.5902 42.0351 23.8366 42.1471 24.1055C42.2815 24.3743 42.3487 24.6543 42.3487 24.9456C42.3487 24.968 42.3375 24.9792 42.3152 24.9792C42.3152 24.9792 42.3152 24.9904 42.3152 25.0128C42.808 24.4527 43.1553 24.1727 43.3569 24.1727C43.4689 24.1727 43.5921 24.2399 43.7266 24.3743C43.861 24.4863 43.9842 24.6431 44.0962 24.8448C44.2082 25.024 44.2978 25.2144 44.3651 25.4161C44.4323 25.6177 44.4659 25.7857 44.4659 25.9201C44.4659 25.9873 44.3315 26.2114 44.0626 26.5923C43.8162 26.9507 43.5025 27.3876 43.1217 27.9029C42.7632 28.4181 42.3599 28.9782 41.9119 29.5831C41.4638 30.1656 41.0494 30.7369 40.6685 31.297C40.31 31.8347 39.9964 32.3275 39.7275 32.7756C39.4811 33.2237 39.3579 33.5486 39.3579 33.7502C39.3579 33.795 39.3803 33.8174 39.4251 33.8174C39.5595 33.8174 39.8507 33.627 40.2988 33.2461C40.7469 32.8876 41.2734 32.4284 41.8783 31.8683C42.4832 31.2858 43.1329 30.6473 43.8274 29.9528C44.5443 29.2583 45.0596 28.7654 45.3732 28.4741C45.7093 28.1605 46.0341 27.858 46.3478 27.5668ZM33.8802 32.5068C34.1491 32.5068 34.5075 32.3724 34.9556 32.1035C35.4037 31.8123 35.8965 31.4426 36.4342 30.9945C36.9943 30.5465 37.5768 30.0312 38.1817 29.4487C38.7866 28.8438 39.3803 28.2389 39.9628 27.634C39.8507 27.5892 39.7499 27.522 39.6603 27.4324C39.5931 27.3428 39.5595 27.2419 39.5595 27.1299C39.5595 27.0627 39.6491 26.9395 39.8284 26.7603C40.03 26.5811 40.2428 26.3794 40.4668 26.1554C40.6909 25.9089 40.8925 25.6401 41.0718 25.3489C41.2734 25.0576 41.3742 24.7776 41.3742 24.5087C41.3742 24.2623 41.251 24.1391 41.0045 24.1391C40.8029 24.1391 40.478 24.2847 40.03 24.5759C39.5819 24.8672 39.0778 25.2592 38.5177 25.7521C37.9801 26.2226 37.42 26.7603 36.8375 27.3652C36.2774 27.9476 35.7509 28.5414 35.258 29.1463C34.7876 29.7511 34.3955 30.3225 34.0819 30.8601C33.7906 31.3978 33.645 31.8571 33.645 32.2379C33.645 32.4172 33.7234 32.5068 33.8802 32.5068Z" fill="white"/>
</g>
</g>
<defs>
<clipPath id="clip0_205_305">
<rect width="51" height="51" fill="white"/>
</clipPath>
<clipPath id="clip1_205_305">
<rect width="15.0845" height="12.5704" fill="white" transform="translate(31.6056 22.6268)"/>
</clipPath>
</defs>
</svg>
