<svg width="51" height="51" viewBox="0 0 51 51" fill="none" xmlns="http://www.w3.org/2000/svg">
<g clip-path="url(#clip0_205_305)">
<path d="M51 25.5C51 11.4167 39.5833 0 25.5 0C11.4167 0 0 11.4167 0 25.5C0 39.5833 11.4167 51 25.5 51C39.5833 51 51 39.5833 51 25.5Z" fill="#015F3F"/>
<path d="M49.9225 25.5C49.9225 12.0119 38.9882 1.07751 25.5 1.07751C12.0118 1.07751 1.07745 12.0119 1.07745 25.5C1.07745 38.9882 12.0118 49.9226 25.5 49.9226C38.9882 49.9226 49.9225 38.9882 49.9225 25.5Z" fill="white"/>
<path d="M48.8451 25.5C48.8451 12.6069 38.3932 2.15491 25.5 2.15491C12.6069 2.15491 2.15497 12.6069 2.15497 25.5C2.15497 38.3931 12.6069 48.8451 25.5 48.8451C38.3932 48.8451 48.8451 38.3931 48.8451 25.5Z" fill="#015F3F"/>
<path d="M12.9571 37.7939C13.8152 37.6265 15.5001 37.1139 18.0116 36.2556C20.5441 35.3975 22.4906 34.6022 23.851 33.8697C25.2115 33.137 26.5405 32.3418 27.8381 31.4836C29.1565 30.6047 30.402 29.6837 31.574 28.721C32.767 27.7582 33.8134 26.7745 34.7134 25.7698C35.6135 24.7442 36.3249 23.7292 36.8482 22.7247C37.3715 21.6991 37.6331 20.7049 37.6331 19.7421C37.6331 18.8631 37.4658 18.0155 37.1308 17.1992C36.796 16.362 36.2936 15.6295 35.6238 15.0016C34.9751 14.3737 34.1379 13.8714 33.1123 13.4947C32.1078 13.1179 30.9356 12.9296 29.5961 12.9296C28.0056 12.9296 26.2892 13.1807 24.4475 13.683C22.6057 14.1853 20.7638 14.876 18.922 15.7551C17.0803 16.6132 15.3012 17.6178 13.585 18.7689C11.8688 19.9201 10.3514 21.1339 9.03282 22.4107C7.71426 23.6873 6.65731 24.9955 5.86199 26.3349C5.06667 27.6744 4.66901 28.9615 4.66901 30.1965C4.66901 30.7198 4.82598 31.2115 5.13991 31.6721C5.45387 32.1325 5.85153 32.3627 6.3329 32.3627C6.56313 32.3627 6.82476 32.3 7.11776 32.1744L7.18055 32.143C7.18055 32.122 7.14915 32.0906 7.08637 32.0487C6.98173 31.986 6.87707 31.9545 6.77243 31.9545C6.52128 31.9336 6.24919 31.8291 5.95617 31.6405C5.8306 31.557 5.76781 31.4 5.76781 31.1696C5.76781 30.3953 6.12362 29.464 6.83522 28.3755C7.5259 27.2662 8.47819 26.1153 9.69211 24.9222C10.9269 23.7292 12.3502 22.5363 13.9617 21.3433C15.5943 20.1503 17.3315 19.0829 19.1732 18.141C21.015 17.1992 22.9091 16.4353 24.8557 15.8492C26.823 15.2632 28.7486 14.9702 30.6322 14.9702C31.5113 14.9702 32.317 15.0225 33.0496 15.1272C33.7821 15.2318 34.3994 15.4306 34.9019 15.7237C35.425 15.9957 35.8332 16.3829 36.1263 16.8853C36.4192 17.3876 36.5656 18.0259 36.5656 18.8003C36.5656 19.9933 36.1263 21.2596 35.2472 22.599C34.3891 23.9385 33.2693 25.278 31.8879 26.6175C30.5276 27.936 28.5916 29.4116 26.0801 31.0442C23.5894 32.6558 21.2871 33.8384 19.1732 34.5918C17.0803 35.3243 15.1966 35.6904 12.706 36.2556C19.3538 19.8413 15.9803 21.3433 15.9803 21.3433C13.585 25.7698 10.1002 37.6894 10.3514 37.9196C10.6025 38.1498 10.8328 38.2649 11.0421 38.2649C11.1258 38.2649 11.199 38.2021 11.2618 38.0765C11.5339 38.0557 12.099 37.9614 12.9571 37.7939Z" fill="white"/>
<g clip-path="url(#clip1_205_305)">
<path d="M46.3478 30.44C46.3702 30.3952 46.4262 30.3616 46.5158 30.3392C46.6054 30.2944 46.6502 30.3392 46.6502 30.4736C46.6502 30.6976 46.6054 30.8768 46.5158 31.0113C46.4486 31.1233 46.4038 31.1905 46.3814 31.2129C45.2836 32.4003 44.2643 33.4532 43.3233 34.3718C42.4048 35.2903 41.5534 36.0521 40.7693 36.6569C40.0076 37.2618 39.4139 37.5643 38.9882 37.5643C38.6074 37.5643 38.2937 37.3738 38.0473 36.993C37.8008 36.6122 37.6776 36.1753 37.6776 35.6824C37.6776 35.3688 37.812 34.9207 38.0809 34.3382C38.3497 33.7557 38.697 33.106 39.1226 32.3891C38.6522 32.882 38.1593 33.3748 37.644 33.8677C37.1511 34.3382 36.6695 34.7638 36.199 35.1447C35.7509 35.5032 35.3365 35.7944 34.9556 36.0184C34.5971 36.2649 34.3059 36.3881 34.0819 36.3881C33.9474 36.3881 33.757 36.3433 33.5106 36.2537C33.2865 36.1865 33.0513 36.0521 32.8049 35.8504C32.5808 35.6712 32.3904 35.4135 32.2336 35.0775C32.0543 34.719 31.9647 34.271 31.9647 33.7333C31.9647 33.2852 32.0991 32.77 32.368 32.1874C32.6368 31.5825 32.9953 30.9777 33.4434 30.3728C33.8914 29.7679 34.3955 29.1742 34.9556 28.5917C35.5157 28.0092 36.087 27.4939 36.6695 27.0458C37.2519 26.5754 37.8232 26.2057 38.3833 25.9369C38.9434 25.6456 39.4363 25.5 39.862 25.5C40.2204 25.5 40.5453 25.5672 40.8365 25.7016C41.1502 25.8361 41.419 26.0153 41.643 26.2393C41.8671 26.4634 42.0351 26.7098 42.1471 26.9786C42.2815 27.2475 42.3487 27.5275 42.3487 27.8188C42.3487 27.8412 42.3375 27.8524 42.3152 27.8524C42.3152 27.8524 42.3152 27.8636 42.3152 27.886C42.808 27.3259 43.1553 27.0458 43.3569 27.0458C43.4689 27.0458 43.5921 27.1131 43.7266 27.2475C43.861 27.3595 43.9842 27.5163 44.0962 27.7179C44.2082 27.8972 44.2978 28.0876 44.3651 28.2892C44.4323 28.4909 44.4659 28.6589 44.4659 28.7933C44.4659 28.8605 44.3315 29.0846 44.0626 29.4654C43.8162 29.8239 43.5025 30.2608 43.1217 30.776C42.7632 31.2913 42.3599 31.8514 41.9119 32.4563C41.4638 33.0388 41.0494 33.6101 40.6685 34.1702C40.31 34.7078 39.9964 35.2007 39.7275 35.6488C39.4811 36.0969 39.3579 36.4217 39.3579 36.6234C39.3579 36.6681 39.3803 36.6906 39.4251 36.6906C39.5595 36.6906 39.8507 36.5001 40.2988 36.1192C40.7469 35.7608 41.2734 35.3015 41.8783 34.7415C42.4832 34.1589 43.1329 33.5204 43.8274 32.8259C44.5443 32.1314 45.0596 31.6386 45.3732 31.3473C45.7093 31.0337 46.0341 30.7312 46.3478 30.44ZM33.8802 35.38C34.1491 35.38 34.5075 35.2455 34.9556 34.9767C35.4037 34.6854 35.8965 34.3158 36.4342 33.8677C36.9943 33.4196 37.5768 32.9043 38.1817 32.3219C38.7866 31.717 39.3803 31.1121 39.9628 30.5072C39.8507 30.4624 39.7499 30.3952 39.6603 30.3055C39.5931 30.2159 39.5595 30.1151 39.5595 30.0031C39.5595 29.9359 39.6491 29.8127 39.8284 29.6335C40.03 29.4542 40.2428 29.2526 40.4668 29.0286C40.6909 28.7821 40.8925 28.5133 41.0718 28.222C41.2734 27.9308 41.3742 27.6507 41.3742 27.3819C41.3742 27.1355 41.251 27.0122 41.0045 27.0122C40.8029 27.0122 40.478 27.1579 40.03 27.4491C39.5819 27.7404 39.0778 28.1324 38.5177 28.6253C37.9801 29.0958 37.42 29.6335 36.8375 30.2383C36.2774 30.8208 35.7509 31.4145 35.258 32.0194C34.7876 32.6243 34.3955 33.1956 34.0819 33.7333C33.7906 34.271 33.645 34.7303 33.645 35.1111C33.645 35.2903 33.7234 35.38 33.8802 35.38Z" fill="white"/>
</g>
</g>
<defs>
<clipPath id="clip0_205_305">
<rect width="51" height="51" fill="white"/>
</clipPath>
<clipPath id="clip1_205_305">
<rect width="15.0845" height="12.5704" fill="white" transform="translate(31.6056 25.5)"/>
</clipPath>
</defs>
</svg>
