<svg width="229" height="52" viewBox="0 0 229 52" fill="none" xmlns="http://www.w3.org/2000/svg">
<g clip-path="url(#clip0_205_304)">
<path d="M142 26C142 11.6406 130.359 0 116 0C101.641 0 90 11.6406 90 26C90 40.3594 101.641 52 116 52C130.359 52 142 40.3594 142 26Z" fill="#015F3F"/>
<path d="M140.901 26C140.901 12.2474 129.753 1.09863 116 1.09863C102.247 1.09863 91.0986 12.2474 91.0986 26C91.0986 39.7527 102.247 50.9015 116 50.9015C129.753 50.9015 140.901 39.7527 140.901 26Z" fill="white"/>
<path d="M139.803 26C139.803 12.854 129.146 2.19714 116 2.19714C102.854 2.19714 92.1972 12.854 92.1972 26C92.1972 39.1459 102.854 49.8028 116 49.8028C129.146 49.8028 139.803 39.1459 139.803 26Z" fill="#015F3F"/>
<path d="M103.211 35.6054C104.086 35.4347 105.804 34.912 108.365 34.0369C110.947 33.1621 112.932 32.3511 114.319 31.6043C115.706 30.8572 117.061 30.0464 118.384 29.1714C119.728 28.2752 120.998 27.3362 122.193 26.3546C123.41 25.3729 124.476 24.3699 125.394 23.3455C126.312 22.2999 127.037 21.2649 127.571 20.2407C128.104 19.195 128.371 18.1813 128.371 17.1996C128.371 16.3034 128.2 15.4392 127.859 14.6069C127.518 13.7533 127.005 13.0064 126.322 12.3662C125.661 11.726 124.807 11.2138 123.762 10.8297C122.737 10.4456 121.542 10.2535 120.176 10.2535C118.555 10.2535 116.805 10.5096 114.927 11.0218C113.049 11.5339 111.171 12.2382 109.293 13.1344C107.415 14.0094 105.601 15.0337 103.851 16.2074C102.102 17.3811 100.554 18.6188 99.2099 19.9206C97.8655 21.2222 96.7879 22.556 95.9769 23.9218C95.166 25.2875 94.7606 26.5999 94.7606 27.859C94.7606 28.3926 94.9206 28.894 95.2407 29.3636C95.5608 29.833 95.9663 30.0677 96.4571 30.0677C96.6918 30.0677 96.9586 30.0038 97.2573 29.8757L97.3214 29.8437C97.3214 29.8223 97.2893 29.7903 97.2253 29.7476C97.1186 29.6837 97.0119 29.6515 96.9052 29.6515C96.6492 29.6303 96.3717 29.5236 96.073 29.3314C95.9449 29.2462 95.8809 29.0862 95.8809 28.8513C95.8809 28.0617 96.2437 27.1122 96.9692 26.0024C97.6735 24.8713 98.6444 23.6978 99.8822 22.4813C101.141 21.2649 102.592 20.0487 104.236 18.8322C105.9 17.6158 107.671 16.5275 109.549 15.5672C111.427 14.6069 113.358 13.828 115.343 13.2305C117.349 12.6329 119.312 12.3342 121.233 12.3342C122.129 12.3342 122.951 12.3875 123.698 12.4942C124.444 12.6009 125.074 12.8037 125.586 13.1024C126.12 13.3798 126.536 13.7746 126.835 14.2868C127.133 14.7989 127.283 15.4498 127.283 16.2394C127.283 17.4558 126.835 18.7469 125.938 20.1126C125.063 21.4784 123.922 22.8441 122.513 24.2099C121.126 25.5542 119.152 27.0588 116.591 28.7234C114.052 30.3665 111.704 31.5723 109.549 32.3406C107.415 33.0874 105.495 33.4607 102.955 34.0369C109.733 17.3008 106.294 18.8322 106.294 18.8322C103.851 23.3455 100.298 35.4988 100.554 35.7335C100.81 35.9682 101.045 36.0856 101.259 36.0856C101.344 36.0856 101.419 36.0217 101.483 35.8936C101.76 35.8723 102.336 35.7762 103.211 35.6054Z" fill="white"/>
<g clip-path="url(#clip1_205_304)">
<path d="M137.257 28.1073C137.279 28.0616 137.337 28.0273 137.428 28.0045C137.519 27.9588 137.565 28.0045 137.565 28.1415C137.565 28.37 137.519 28.5527 137.428 28.6898C137.359 28.804 137.314 28.8725 137.291 28.8954C136.172 30.106 135.132 31.1796 134.173 32.1162C133.236 33.0527 132.368 33.8294 131.569 34.4461C130.792 35.0629 130.187 35.3713 129.753 35.3713C129.364 35.3713 129.045 35.1771 128.793 34.7888C128.542 34.4005 128.416 33.955 128.416 33.4525C128.416 33.1327 128.554 32.6758 128.828 32.0819C129.102 31.488 129.456 30.8255 129.89 30.0946C129.41 30.5972 128.908 31.0997 128.382 31.6022C127.88 32.0819 127.389 32.5159 126.909 32.9043C126.452 33.2697 126.029 33.5667 125.641 33.7951C125.276 34.0464 124.979 34.172 124.75 34.172C124.613 34.172 124.419 34.1263 124.168 34.035C123.939 33.9665 123.699 33.8294 123.448 33.6238C123.22 33.4411 123.026 33.1784 122.866 32.8357C122.683 32.4702 122.592 32.0134 122.592 31.4651C122.592 31.0083 122.729 30.4829 123.003 29.889C123.277 29.2722 123.642 28.6555 124.099 28.0388C124.556 27.422 125.07 26.8166 125.641 26.2227C126.212 25.6288 126.795 25.1034 127.389 24.6466C127.982 24.1669 128.565 23.79 129.136 23.5159C129.707 23.2189 130.21 23.0704 130.644 23.0704C131.009 23.0704 131.34 23.139 131.637 23.276C131.957 23.4131 132.231 23.5958 132.46 23.8242C132.688 24.0527 132.859 24.3039 132.974 24.5781C133.111 24.8522 133.179 25.1377 133.179 25.4347C133.179 25.4575 133.168 25.4689 133.145 25.4689C133.145 25.4689 133.145 25.4804 133.145 25.5032C133.647 24.9321 134.002 24.6466 134.207 24.6466C134.321 24.6466 134.447 24.7151 134.584 24.8522C134.721 24.9664 134.847 25.1263 134.961 25.3319C135.075 25.5146 135.166 25.7088 135.235 25.9144C135.304 26.1199 135.338 26.2913 135.338 26.4283C135.338 26.4968 135.201 26.7253 134.927 27.1136C134.675 27.4791 134.356 27.9245 133.967 28.4499C133.602 28.9753 133.191 29.5464 132.734 30.1631C132.277 30.757 131.854 31.3395 131.466 31.9106C131.1 32.4588 130.781 32.9614 130.507 33.4182C130.255 33.8751 130.13 34.2063 130.13 34.4119C130.13 34.4576 130.153 34.4804 130.198 34.4804C130.335 34.4804 130.632 34.2863 131.089 33.8979C131.546 33.5324 132.083 33.0641 132.699 32.4931C133.316 31.8992 133.979 31.2481 134.687 30.54C135.418 29.8319 135.943 29.3294 136.263 29.0324C136.606 28.7126 136.937 28.4042 137.257 28.1073ZM124.545 33.1441C124.819 33.1441 125.184 33.0071 125.641 32.7329C126.098 32.436 126.6 32.0591 127.149 31.6022C127.72 31.1453 128.314 30.62 128.93 30.0261C129.547 29.4093 130.153 28.7926 130.746 28.1758C130.632 28.1301 130.529 28.0616 130.438 27.9702C130.37 27.8788 130.335 27.776 130.335 27.6618C130.335 27.5933 130.427 27.4677 130.609 27.2849C130.815 27.1022 131.032 26.8966 131.26 26.6682C131.489 26.4169 131.694 26.1428 131.877 25.8458C132.083 25.5489 132.186 25.2633 132.186 24.9892C132.186 24.738 132.06 24.6123 131.809 24.6123C131.603 24.6123 131.272 24.7608 130.815 25.0578C130.358 25.3547 129.844 25.7545 129.273 26.257C128.725 26.7367 128.154 27.2849 127.56 27.9017C126.989 28.4956 126.452 29.1009 125.949 29.7177C125.47 30.3344 125.07 30.917 124.75 31.4651C124.453 32.0134 124.305 32.4817 124.305 32.87C124.305 33.0527 124.385 33.1441 124.545 33.1441Z" fill="white"/>
</g>
</g>
<path d="M15.4082 34.0596C12.6738 34.9938 10.8395 35.5521 9.90527 35.7344C8.97103 35.9167 8.35579 36.0192 8.05957 36.042C7.99121 36.1787 7.91146 36.2471 7.82031 36.2471C7.59245 36.2471 7.3418 36.1217 7.06836 35.8711C6.79492 35.6204 6.6582 35.3014 6.6582 34.9141C6.6582 34.5267 6.94303 33.8887 7.5127 33C8.08236 32.1113 8.83431 31.0745 9.76855 29.8896C10.7028 28.682 12.0928 26.9844 13.9385 24.7969C15.807 22.6094 17.2083 21.0029 18.1426 19.9775C19.0768 18.9294 19.8288 18.0863 20.3984 17.4482C20.9681 16.7874 21.2529 16.4342 21.2529 16.3887C21.2529 16.3659 21.2643 16.3317 21.2871 16.2861C21.3327 16.195 21.401 16.1494 21.4922 16.1494C21.5605 16.1494 21.6745 16.2064 21.834 16.3203C21.9935 16.4342 22.153 16.5824 22.3125 16.7646C22.4948 16.9469 22.6543 17.152 22.791 17.3799C22.9277 17.6077 22.9961 17.8356 22.9961 18.0635C22.9961 18.2686 22.9505 18.4395 22.8594 18.5762C22.7682 18.6901 22.6885 18.7926 22.6201 18.8838C22.1644 19.3851 20.3757 21.3105 17.2539 24.6602C14.1549 27.987 11.4661 31.2227 9.1875 34.3672C11.8991 33.752 14.3942 33.0456 16.6729 32.248C18.9743 31.4277 21.4808 30.1403 24.1924 28.3857C26.9268 26.6084 29.0345 25.002 30.5156 23.5664C32.0195 22.1081 33.2386 20.6497 34.1729 19.1914C35.1299 17.7331 35.6084 16.3545 35.6084 15.0557C35.6084 14.2126 35.4489 13.5176 35.1299 12.9707C34.8109 12.4238 34.3665 12.0023 33.7969 11.7061C33.25 11.387 32.5778 11.1706 31.7803 11.0566C30.9827 10.9427 30.1055 10.8857 29.1484 10.8857C27.0977 10.8857 25.0013 11.2048 22.8594 11.8428C20.7402 12.4808 18.6781 13.3125 16.6729 14.3379C14.6676 15.3633 12.7764 16.5254 10.999 17.8242C9.24447 19.123 7.69499 20.4219 6.35059 21.7207C5.02897 23.0195 3.99219 24.2728 3.24023 25.4805C2.46549 26.6654 2.07812 27.6794 2.07812 28.5225C2.07812 28.7731 2.14648 28.944 2.2832 29.0352C2.60221 29.2402 2.89844 29.3542 3.17188 29.377C3.28581 29.377 3.39974 29.4111 3.51367 29.4795C3.58203 29.5251 3.61621 29.5592 3.61621 29.582L3.54785 29.6162C3.22884 29.7529 2.94401 29.8213 2.69336 29.8213C2.16927 29.8213 1.73633 29.5706 1.39453 29.0693C1.05273 28.568 0.881836 28.0326 0.881836 27.4629C0.881836 26.1185 1.31478 24.7171 2.18066 23.2588C3.04655 21.8005 4.19727 20.3763 5.63281 18.9863C7.06836 17.5964 8.72038 16.2747 10.5889 15.0215C12.4574 13.7682 14.3942 12.6745 16.3994 11.7402C18.4046 10.7832 20.4098 10.0312 22.415 9.48438C24.4202 8.9375 26.2887 8.66406 28.0205 8.66406C29.4788 8.66406 30.7549 8.86914 31.8486 9.2793C32.9652 9.68945 33.8766 10.2363 34.583 10.9199C35.3122 11.6035 35.859 12.401 36.2236 13.3125C36.5882 14.2012 36.7705 15.124 36.7705 16.0811C36.7705 17.1292 36.4857 18.2116 35.916 19.3281C35.3464 20.4219 34.5716 21.527 33.5918 22.6436C32.612 23.7373 31.4727 24.8083 30.1738 25.8564C28.8978 26.9046 27.542 27.9072 26.1064 28.8643C24.6937 29.7985 23.2467 30.6644 21.7656 31.4619C20.2845 32.2594 18.1654 33.1253 15.4082 34.0596ZM40.7695 24.9678C40.4961 24.9906 40.1315 25.1615 39.6758 25.4805C39.2428 25.7767 38.7643 26.1755 38.2402 26.6768C37.7161 27.1553 37.1693 27.7249 36.5996 28.3857C36.0299 29.0238 35.4717 29.6618 34.9248 30.2998C35.1755 30.4593 35.3122 30.6416 35.335 30.8467C35.335 30.915 35.2438 31.0518 35.0615 31.2568C34.8792 31.4391 34.6855 31.6556 34.4805 31.9062C34.2982 32.1569 34.1159 32.4303 33.9336 32.7266C33.7741 33.0228 33.6943 33.319 33.6943 33.6152C33.7171 33.8431 33.8538 33.9456 34.1045 33.9229C34.3096 33.9229 34.6286 33.752 35.0615 33.4102C35.4945 33.0911 35.973 32.6696 36.4971 32.1455C37.0212 31.6214 37.5566 31.0404 38.1035 30.4023C38.6504 29.7643 39.1403 29.1263 39.5732 28.4883C40.029 27.8275 40.3936 27.2122 40.667 26.6426C40.9404 26.0729 41.0658 25.5944 41.043 25.207C41.0202 25.0247 40.929 24.945 40.7695 24.9678ZM51.6387 9.21094C50.5677 9.57552 49.5879 10.054 48.6992 10.6465C47.8105 11.2389 46.9447 11.9795 46.1016 12.8682C45.2812 13.7568 44.4495 14.805 43.6064 16.0127C42.7633 17.2204 41.8405 18.6217 40.8379 20.2168C41.6582 19.6471 42.5469 19.0205 43.5039 18.3369C44.4609 17.6533 45.4863 16.9128 46.5801 16.1152C47.8789 15.181 48.9385 14.3607 49.7588 13.6543C50.6019 12.9479 51.2627 12.3441 51.7412 11.8428C52.2197 11.3187 52.5387 10.8857 52.6982 10.5439C52.8805 10.2021 52.9603 9.92871 52.9375 9.72363C52.9375 9.47298 52.835 9.31348 52.6299 9.24512C52.4476 9.15397 52.2425 9.11979 52.0146 9.14258C51.8324 9.14258 51.707 9.16536 51.6387 9.21094ZM32.1221 33.2393C31.6436 33.9684 31.3929 34.3444 31.3701 34.3672C31.279 34.5039 31.2106 34.6064 31.165 34.6748C31.1195 34.7432 31.0853 34.7773 31.0625 34.7773C31.0397 34.8001 31.0169 34.8115 30.9941 34.8115C30.7207 34.8571 30.4245 34.5837 30.1055 33.9912C30.0599 33.8545 30.1055 33.5924 30.2422 33.2051C30.4928 32.5671 30.8802 31.7695 31.4043 30.8125C31.9284 29.8555 33.2956 27.6566 35.5059 24.2158C37.7161 20.7751 39.3796 18.223 40.4961 16.5596C41.7266 14.7139 42.9001 13.1758 44.0166 11.9453C45.1559 10.7148 46.2839 9.7806 47.4004 9.14258C48.5169 8.50456 49.736 8.13997 51.0576 8.04883C51.6729 8.00326 52.2311 8.17415 52.7324 8.56152C53.2565 8.92611 53.5413 9.41602 53.5869 10.0312C53.6325 10.7832 53.2565 11.6149 52.459 12.5264C51.6842 13.415 50.6361 14.3721 49.3145 15.3975C47.9928 16.4001 46.4775 17.4824 44.7686 18.6445C43.0824 19.8066 41.3734 20.9915 39.6416 22.1992C39.1403 23.0195 38.6048 23.8854 38.0352 24.7969C37.4883 25.6855 36.9072 26.6312 36.292 27.6338C36.7021 27.1553 37.1123 26.6995 37.5225 26.2666C37.9326 25.8337 38.32 25.4577 38.6846 25.1387C39.0492 24.7969 39.3796 24.5234 39.6758 24.3184C39.9948 24.0905 40.2568 23.9652 40.4619 23.9424C40.5986 23.9424 40.7923 23.9766 41.043 24.0449C41.2936 24.0905 41.5443 24.2158 41.7949 24.4209C42.0684 24.6032 42.2962 24.8652 42.4785 25.207C42.6836 25.526 42.7975 25.959 42.8203 26.5059C42.8659 26.9844 42.7633 27.5312 42.5127 28.1465C42.2848 28.7389 41.9658 29.3656 41.5557 30.0264C41.1455 30.6872 40.667 31.3366 40.1201 31.9746C39.596 32.5898 39.0492 33.1367 38.4795 33.6152C37.9098 34.1165 37.3516 34.5267 36.8047 34.8457C36.2578 35.1875 35.7679 35.3698 35.335 35.3926C34.1729 35.5293 33.3525 35.3014 32.874 34.709C32.4411 34.2305 32.1904 33.7406 32.1221 33.2393ZM54.8516 26.6426C54.8743 26.597 54.9313 26.5628 55.0225 26.54C55.1136 26.4945 55.1592 26.54 55.1592 26.6768C55.1592 26.9046 55.1136 27.0869 55.0225 27.2236C54.9541 27.3376 54.9085 27.4059 54.8857 27.4287C54.7035 27.611 54.487 27.8161 54.2363 28.0439C54.0085 28.2718 53.5299 28.7161 52.8008 29.377C52.0488 30.015 51.2741 30.6074 50.4766 31.1543C49.679 31.6784 48.8587 32.1227 48.0156 32.4873C47.1953 32.8291 46.3978 33 45.623 33C44.8027 33 44.1647 32.7835 43.709 32.3506C43.276 31.9176 43.0596 31.3138 43.0596 30.5391C43.0596 29.9466 43.1849 29.32 43.4355 28.6592C43.6634 27.9984 43.9824 27.3376 44.3926 26.6768C44.8027 26.016 45.2812 25.3893 45.8281 24.7969C46.3522 24.1816 46.8991 23.6462 47.4688 23.1904C48.0612 22.7119 48.6536 22.3359 49.2461 22.0625C49.8385 21.7891 50.4082 21.6523 50.9551 21.6523C51.1374 21.6523 51.3766 21.6865 51.6729 21.7549C51.9463 21.8005 52.2197 21.8916 52.4932 22.0283C52.7666 22.165 52.9945 22.3587 53.1768 22.6094C53.3818 22.8372 53.4844 23.1335 53.4844 23.498C53.4844 24.0905 53.3363 24.6374 53.04 25.1387C52.721 25.64 52.3223 26.0957 51.8438 26.5059C51.3652 26.8932 50.8411 27.2464 50.2715 27.5654C49.679 27.8617 49.1094 28.1123 48.5625 28.3174C47.9928 28.4997 47.4688 28.6478 46.9902 28.7617C46.5345 28.8529 46.1927 28.887 45.9648 28.8643C45.6458 29.3883 45.4066 29.8783 45.2471 30.334C45.0648 30.7897 44.9736 31.2113 44.9736 31.5986C44.9736 31.7354 45.0078 31.8379 45.0762 31.9062C45.1445 31.9518 45.3496 31.9746 45.6914 31.9746C46.8763 31.9746 48.0042 31.6898 49.0752 31.1201C50.1689 30.5505 51.1943 29.8669 52.1514 29.0693C53.1084 28.249 54.0085 27.4401 54.8516 26.6426ZM52.5615 23.2588C52.5615 23.0309 52.4476 22.917 52.2197 22.917C51.9007 22.917 51.5133 23.0651 51.0576 23.3613C50.5791 23.6348 50.0778 24.0107 49.5537 24.4893C49.0296 24.945 48.5169 25.4805 48.0156 26.0957C47.4915 26.6882 47.013 27.292 46.5801 27.9072C47.2409 27.7477 47.9245 27.4857 48.6309 27.1211C49.3372 26.7337 49.9753 26.3122 50.5449 25.8564C51.1374 25.4007 51.6273 24.945 52.0146 24.4893C52.3792 24.0107 52.5615 23.6006 52.5615 23.2588ZM64.7295 28.3174C64.2965 29.0921 63.7725 29.8669 63.1572 30.6416C62.5648 31.3936 61.904 32.0771 61.1748 32.6924C60.4684 33.3076 59.7165 33.8089 58.9189 34.1963C58.1214 34.5837 57.3353 34.7773 56.5605 34.7773C55.7858 34.7773 55.125 34.6406 54.5781 34.3672C54.0312 34.1165 53.6553 33.8317 53.4502 33.5127C52.516 34.5381 51.6273 35.5293 50.7842 36.4863C49.9183 37.4661 49.1322 38.3662 48.4258 39.1865C47.765 40.0752 47.1497 40.9183 46.5801 41.7158C46.0104 42.5133 45.5091 43.2197 45.0762 43.835C44.6204 44.4502 44.2559 44.9629 43.9824 45.373C43.6862 45.806 43.4925 46.0908 43.4014 46.2275C43.2874 46.4326 43.1621 46.4896 43.0254 46.3984C42.8887 46.3073 42.7178 46.1706 42.5127 45.9883C42.3304 45.806 42.1937 45.5439 42.1025 45.2021C41.9886 44.8604 42 44.5299 42.1367 44.2109C42.2279 44.0742 42.3418 43.9147 42.4785 43.7324C43.6406 41.9323 44.723 40.2917 45.7256 38.8105C46.7282 37.3522 47.765 35.8711 48.8359 34.3672C49.9069 32.8633 51.0918 31.2454 52.3906 29.5137C53.6895 27.7819 55.2161 25.7539 56.9707 23.4297C57.0163 23.3613 57.0505 23.3044 57.0732 23.2588C57.096 23.1904 57.1074 23.1107 57.1074 23.0195C57.153 22.6549 57.3125 22.5866 57.5859 22.8145C58.11 23.2474 58.4404 23.7373 58.5771 24.2842C58.7367 24.8083 58.6227 25.3324 58.2354 25.8564C57.7796 26.4489 57.3011 27.0869 56.7998 27.7705C56.2985 28.4541 55.7744 29.1719 55.2275 29.9238C56.1846 28.9212 57.1188 27.9642 58.0303 27.0527C58.9645 26.1185 59.819 25.2982 60.5938 24.5918C61.3913 23.8626 62.0749 23.293 62.6445 22.8828C63.2142 22.4499 63.6243 22.2334 63.875 22.2334C64.1484 22.2334 64.3991 22.3132 64.627 22.4727C64.8776 22.6094 65.0941 22.8031 65.2764 23.0537C65.4587 23.2816 65.6068 23.555 65.7207 23.874C65.8346 24.193 65.8916 24.5234 65.8916 24.8652C65.8916 25.2298 65.8232 25.64 65.6865 26.0957C65.5726 26.5286 65.4017 26.9958 65.1738 27.4971L64.7295 28.3174ZM55.5693 31.1885C54.7718 32.1455 54.3275 32.738 54.2363 32.9658C54.2591 32.9658 54.3161 32.9772 54.4072 33C54.4984 33 54.6123 33 54.749 33C55.8656 33 56.9137 32.6924 57.8936 32.0771C58.8962 31.4391 59.7962 30.6644 60.5938 29.7529L61.3115 28.8984C61.7217 28.3516 62.0977 27.8047 62.4395 27.2578C62.7812 26.7109 63.0661 26.1982 63.2939 25.7197C63.5218 25.2184 63.6927 24.7741 63.8066 24.3867C63.9434 23.9993 64.0117 23.6917 64.0117 23.4639C64.0117 23.3727 63.9661 23.3271 63.875 23.3271C63.6927 23.3271 63.3395 23.5436 62.8154 23.9766C62.2913 24.4095 61.6533 24.9906 60.9014 25.7197C60.1494 26.4261 59.3177 27.2578 58.4062 28.2148C57.4948 29.1491 56.5492 30.1403 55.5693 31.1885ZM79.3242 28.0439C79.3698 27.9984 79.4268 27.9642 79.4951 27.9414C79.5863 27.8958 79.6318 27.9414 79.6318 28.0781C79.6318 28.306 79.5863 28.4883 79.4951 28.625C79.4268 28.7389 79.3812 28.8073 79.3584 28.8301C78.4242 29.7188 77.5697 30.5505 76.7949 31.3252C76.0202 32.0771 75.3138 32.681 74.6758 33.1367C74.0605 33.6152 73.5251 33.8545 73.0693 33.8545C72.7731 33.8545 72.4427 33.695 72.0781 33.376C71.7363 33.0798 71.5654 32.5329 71.5654 31.7354C71.5654 31.348 71.7249 30.8125 72.0439 30.1289C72.3857 29.4453 72.7959 28.7275 73.2744 27.9756C72.5225 28.7731 71.7933 29.5251 71.0869 30.2314C70.3805 30.9378 69.7197 31.5645 69.1045 32.1113C68.4893 32.6354 67.931 33.057 67.4297 33.376C66.9284 33.695 66.5068 33.8545 66.165 33.8545C65.8916 33.8545 65.5726 33.695 65.208 33.376C64.8434 33.0798 64.6611 32.5329 64.6611 31.7354C64.6611 31.4619 64.7523 31.1087 64.9346 30.6758C65.1169 30.2201 65.3447 29.7415 65.6182 29.2402C65.9144 28.7161 66.2448 28.1807 66.6094 27.6338C66.9967 27.0869 67.3841 26.5514 67.7715 26.0273C68.0677 25.5944 68.3981 25.1501 68.7627 24.6943C69.1273 24.2158 69.4691 23.7829 69.7881 23.3955C70.1299 23.0081 70.4261 22.6891 70.6768 22.4385C70.9502 22.1878 71.1439 22.0625 71.2578 22.0625C71.3717 22.0625 71.4971 22.1309 71.6338 22.2676C71.7705 22.3815 71.8958 22.541 72.0098 22.7461C72.1237 22.9284 72.2148 23.1221 72.2832 23.3271C72.3516 23.5322 72.3857 23.7031 72.3857 23.8398C72.3857 23.9082 72.2376 24.1475 71.9414 24.5576C71.668 24.9678 71.3148 25.4691 70.8818 26.0615C70.4489 26.6312 69.9704 27.2578 69.4463 27.9414C68.945 28.625 68.4779 29.2744 68.0449 29.8896C67.612 30.5049 67.2474 31.0632 66.9512 31.5645C66.6777 32.043 66.541 32.3848 66.541 32.5898C66.541 32.6582 66.5638 32.6924 66.6094 32.6924C66.8145 32.6924 67.1335 32.5443 67.5664 32.248C67.9993 31.929 68.5007 31.5303 69.0703 31.0518C69.64 30.5505 70.2438 29.9922 70.8818 29.377C71.5199 28.7389 72.1579 28.1009 72.7959 27.4629C73.4339 26.8249 74.0378 26.2096 74.6074 25.6172C75.1771 25.0247 75.6784 24.512 76.1113 24.0791C76.4303 23.6917 76.7152 23.3841 76.9658 23.1562C77.2165 22.9056 77.3988 22.7803 77.5127 22.7803C77.6266 22.7803 77.752 22.8486 77.8887 22.9854C78.0254 23.1221 78.1507 23.2816 78.2646 23.4639C78.3786 23.6462 78.4697 23.8512 78.5381 24.0791C78.6064 24.2842 78.6406 24.4551 78.6406 24.5918C78.6406 24.6602 78.5039 24.888 78.2305 25.2754C77.9798 25.64 77.6608 26.0843 77.2734 26.6084C76.9089 27.1325 76.4987 27.7021 76.043 28.3174C75.5872 28.9326 75.1657 29.5251 74.7783 30.0947C74.4137 30.6644 74.0947 31.1771 73.8213 31.6328C73.5706 32.0658 73.4453 32.3848 73.4453 32.5898C73.4453 32.6582 73.4681 32.6924 73.5137 32.6924C73.8555 32.6924 74.2656 32.4987 74.7441 32.1113C75.2454 31.724 75.8379 31.1885 76.5215 30.5049C77.2051 29.8213 78.1393 29.001 79.3242 28.0439Z" fill="black"/>
<path d="M181.455 8.66406C182.913 8.66406 184.189 8.86914 185.283 9.2793C186.4 9.68945 187.311 10.2363 188.018 10.9199C188.747 11.6035 189.294 12.401 189.658 13.3125C190.023 14.2012 190.205 15.124 190.205 16.0811C190.205 17.1292 189.92 18.2116 189.351 19.3281C188.781 20.4219 188.006 21.527 187.026 22.6436C186.047 23.7373 184.907 24.8083 183.608 25.8564C182.332 26.9046 180.977 27.9072 179.541 28.8643C178.128 29.7985 176.681 30.6644 175.2 31.4619C173.719 32.2594 172.295 32.943 170.928 33.5127C169.583 34.1051 168.33 34.5609 167.168 34.8799C166.029 35.1989 165.072 35.3584 164.297 35.3584C163.727 35.3584 163.169 35.2673 162.622 35.085C162.075 34.9255 161.585 34.6634 161.152 34.2988C160.719 33.957 160.366 33.5127 160.093 32.9658C159.842 32.3962 159.717 31.724 159.717 30.9492C159.717 29.8783 160.059 28.7389 160.742 27.5312C161.426 26.3008 162.28 25.0703 163.306 23.8398C164.354 22.6094 165.482 21.4245 166.689 20.2852C167.92 19.123 169.071 18.0749 170.142 17.1406C171.213 16.2064 172.113 15.4316 172.842 14.8164C173.571 14.1784 173.981 13.7682 174.072 13.5859C174.095 13.5176 174.186 13.5062 174.346 13.5518C174.779 13.7568 175.098 13.9847 175.303 14.2354C175.508 14.4632 175.633 14.6911 175.679 14.9189C175.724 15.1468 175.701 15.3633 175.61 15.5684C175.542 15.7734 175.428 15.9557 175.269 16.1152C175.223 16.1608 174.836 16.4684 174.106 17.0381C173.4 17.585 172.523 18.3141 171.475 19.2256C170.426 20.137 169.299 21.1624 168.091 22.3018C166.883 23.4411 165.755 24.6146 164.707 25.8223C163.682 27.0299 162.827 28.2262 162.144 29.4111C161.46 30.5732 161.118 31.6214 161.118 32.5557C161.118 32.9886 161.232 33.3304 161.46 33.5811C161.711 33.8545 161.995 34.0596 162.314 34.1963C162.656 34.333 162.998 34.4242 163.34 34.4697C163.682 34.5153 163.955 34.5381 164.16 34.5381C165.186 34.5381 166.507 34.2305 168.125 33.6152C169.766 33.0228 171.509 32.2253 173.354 31.2227C175.2 30.1973 177.057 29.0238 178.926 27.7021C180.794 26.3805 182.469 25.002 183.95 23.5664C185.454 22.1081 186.673 20.6497 187.607 19.1914C188.564 17.7331 189.043 16.3545 189.043 15.0557C189.043 14.2126 188.883 13.5176 188.564 12.9707C188.245 12.4238 187.801 12.0023 187.231 11.7061C186.685 11.387 186.012 11.1706 185.215 11.0566C184.417 10.9427 183.54 10.8857 182.583 10.8857C180.532 10.8857 178.436 11.2048 176.294 11.8428C174.175 12.4808 172.113 13.3125 170.107 14.3379C168.102 15.3633 166.211 16.5254 164.434 17.8242C162.679 19.123 161.13 20.4219 159.785 21.7207C158.464 23.0195 157.415 24.2728 156.641 25.4805C155.889 26.6654 155.513 27.6794 155.513 28.5225C155.513 28.7731 155.581 28.944 155.718 29.0352C156.037 29.2402 156.333 29.3542 156.606 29.377C156.72 29.377 156.834 29.4111 156.948 29.4795C157.017 29.5251 157.051 29.5592 157.051 29.582L156.982 29.6162C156.663 29.7529 156.379 29.8213 156.128 29.8213C155.604 29.8213 155.171 29.5706 154.829 29.0693C154.487 28.568 154.316 28.0326 154.316 27.4629C154.316 26.1185 154.749 24.7171 155.615 23.2588C156.481 21.8005 157.632 20.3763 159.067 18.9863C160.503 17.5964 162.155 16.2747 164.023 15.0215C165.892 13.7682 167.829 12.6745 169.834 11.7402C171.839 10.7832 173.844 10.0312 175.85 9.48438C177.855 8.9375 179.723 8.66406 181.455 8.66406ZM192.085 23.3271C192.085 23.3727 192.028 23.4867 191.914 23.6689C191.8 23.8512 191.652 24.0677 191.47 24.3184L188.223 29.001C188.975 28.2718 189.727 27.5882 190.479 26.9502C191.253 26.2894 191.982 25.6969 192.666 25.1729C193.372 24.626 194.022 24.1589 194.614 23.7715C195.207 23.3613 195.697 23.0537 196.084 22.8486C196.221 22.7803 196.38 22.7803 196.562 22.8486C196.745 22.8942 196.904 22.9854 197.041 23.1221C197.178 23.2588 197.28 23.4183 197.349 23.6006C197.44 23.7601 197.474 23.9082 197.451 24.0449C197.428 24.0905 197.371 24.1361 197.28 24.1816C197.212 24.2272 196.87 24.4209 196.255 24.7627C195.662 25.0817 194.99 25.4691 194.238 25.9248C193.486 26.3577 192.757 26.8021 192.051 27.2578C191.344 27.7135 190.854 28.0781 190.581 28.3516C190.535 28.3971 190.49 28.4313 190.444 28.4541C190.672 28.4997 190.889 28.568 191.094 28.6592C191.299 28.7275 191.447 28.8643 191.538 29.0693C191.743 29.5251 191.971 30.0605 192.222 30.6758C192.495 31.291 192.814 31.8835 193.179 32.4531C193.543 33.0228 193.942 33.5013 194.375 33.8887C194.808 34.2988 195.298 34.5039 195.845 34.5039C196.027 34.5039 196.266 34.4469 196.562 34.333C196.859 34.2419 197.041 34.1963 197.109 34.1963C197.246 34.1963 197.314 34.2533 197.314 34.3672C197.314 34.4355 197.246 34.5267 197.109 34.6406C196.973 34.7546 196.79 34.8571 196.562 34.9482C196.357 35.0622 196.118 35.1533 195.845 35.2217C195.571 35.3128 195.286 35.3584 194.99 35.3584C194.193 35.3584 193.475 35.1419 192.837 34.709C192.199 34.276 191.641 33.752 191.162 33.1367C190.684 32.5443 190.273 31.9176 189.932 31.2568C189.613 30.596 189.373 30.0378 189.214 29.582C189.214 29.6048 189.202 29.6162 189.18 29.6162C189.134 29.6618 188.952 29.8327 188.633 30.1289C188.314 30.4251 187.938 30.7783 187.505 31.1885C187.095 31.5986 186.673 32.0202 186.24 32.4531C185.807 32.8861 185.454 33.2734 185.181 33.6152C184.976 33.9115 184.827 34.1393 184.736 34.2988C184.622 34.4583 184.543 34.5723 184.497 34.6406C184.451 34.709 184.417 34.7546 184.395 34.7773C184.372 34.8001 184.338 34.8115 184.292 34.8115C184.178 34.8343 184.053 34.7773 183.916 34.6406C183.757 34.5267 183.597 34.3102 183.438 33.9912C183.369 33.8317 183.403 33.5697 183.54 33.2051C183.791 32.5671 184.178 31.7695 184.702 30.8125C185.226 29.8555 185.841 28.8073 186.548 27.668C187.254 26.5286 188.052 25.2982 188.94 23.9766C189.852 22.6322 190.365 21.903 190.479 21.7891C190.706 21.6068 190.866 21.5156 190.957 21.5156C191.071 21.5156 191.196 21.584 191.333 21.7207C191.47 21.8574 191.595 22.0169 191.709 22.1992C191.823 22.3815 191.914 22.5752 191.982 22.7803C192.051 22.9854 192.085 23.1676 192.085 23.3271ZM204.663 27.8389C204.959 27.3604 205.278 26.859 205.62 26.335C206.053 25.6969 206.463 25.1159 206.851 24.5918C207.261 24.0677 207.625 23.6348 207.944 23.293C208.286 22.9512 208.525 22.7803 208.662 22.7803C208.776 22.7803 208.901 22.8486 209.038 22.9854C209.175 23.1221 209.3 23.2816 209.414 23.4639C209.528 23.6462 209.619 23.8512 209.688 24.0791C209.756 24.2842 209.79 24.4551 209.79 24.5918C209.79 24.6829 209.665 24.8994 209.414 25.2412C209.186 25.583 208.89 26.0046 208.525 26.5059C208.161 26.9844 207.762 27.5199 207.329 28.1123C206.896 28.682 206.497 29.2402 206.133 29.7871C205.768 30.3112 205.461 30.7897 205.21 31.2227C204.982 31.6556 204.868 31.9746 204.868 32.1797C204.868 32.2253 204.902 32.248 204.971 32.248C205.381 32.248 205.905 31.9974 206.543 31.4961C207.204 30.972 207.83 30.4251 208.423 29.8555C209.015 29.263 209.653 28.6364 210.337 27.9756C210.382 27.93 210.439 27.8958 210.508 27.873C210.599 27.8275 210.645 27.873 210.645 28.0098C210.645 28.2376 210.599 28.4199 210.508 28.5566C210.439 28.6706 210.394 28.7389 210.371 28.7617C210.029 29.1263 209.585 29.6048 209.038 30.1973C208.514 30.7669 207.979 31.2682 207.432 31.7012C206.885 32.1341 206.361 32.4873 205.859 32.7607C205.358 33.0114 204.914 33.1367 204.526 33.1367C204.116 33.1367 203.786 32.943 203.535 32.5557C203.307 32.1683 203.193 31.724 203.193 31.2227C203.193 30.9264 203.307 30.5163 203.535 29.9922C203.672 29.696 203.82 29.3883 203.979 29.0693C203.66 29.2288 203.341 29.377 203.022 29.5137C202.179 29.8783 201.37 30.0605 200.596 30.0605C199.958 30.0605 199.434 29.9238 199.023 29.6504C198.727 30.0833 198.397 30.5732 198.032 31.1201C196.938 32.738 196.38 33.5697 196.357 33.6152L196.426 33.4785C196.175 33.7747 196.016 33.9229 195.947 33.9229C195.833 33.9456 195.662 33.8545 195.435 33.6494C195.207 33.4443 195.002 33.1823 194.819 32.8633C194.728 32.6354 194.774 32.3734 194.956 32.0771C195.229 31.6214 195.583 31.0404 196.016 30.334C196.471 29.6276 196.95 28.887 197.451 28.1123C197.952 27.3376 198.454 26.5628 198.955 25.7881C199.479 25.0133 199.969 24.3184 200.425 23.7031C200.63 23.4525 200.778 23.2246 200.869 23.0195C200.96 22.8145 201.04 22.6436 201.108 22.5068C201.2 22.3701 201.279 22.2676 201.348 22.1992C201.439 22.1309 201.564 22.0967 201.724 22.0967C201.929 22.0967 202.157 22.2676 202.407 22.6094C202.658 22.9284 202.829 23.2588 202.92 23.6006C202.965 23.8057 202.954 23.9766 202.886 24.1133C202.817 24.25 202.692 24.4437 202.51 24.6943C202.327 24.9222 202.111 25.2184 201.86 25.583C201.61 25.9248 201.336 26.3008 201.04 26.7109C200.767 27.1211 200.47 27.554 200.151 28.0098C200.106 28.0781 200.049 28.1693 199.98 28.2832C199.958 28.3971 199.946 28.5225 199.946 28.6592C199.946 28.7959 199.98 28.8984 200.049 28.9668C200.117 29.0124 200.322 29.0352 200.664 29.0352C201.849 29.0352 202.988 28.7503 204.082 28.1807C204.287 28.0667 204.481 27.9528 204.663 27.8389ZM222.71 27.8047C222.733 27.7591 222.79 27.7249 222.881 27.7021C222.972 27.6566 223.018 27.7021 223.018 27.8389C223.018 28.0667 222.972 28.249 222.881 28.3857C222.812 28.4997 222.767 28.568 222.744 28.5908C221.628 29.7985 220.591 30.8695 219.634 31.8037C218.7 32.738 217.834 33.5127 217.036 34.1279C216.261 34.7432 215.658 35.0508 215.225 35.0508C214.837 35.0508 214.518 34.8571 214.268 34.4697C214.017 34.0824 213.892 33.638 213.892 33.1367C213.892 32.8177 214.028 32.362 214.302 31.7695C214.575 31.1771 214.928 30.5163 215.361 29.7871C214.883 30.2884 214.382 30.7897 213.857 31.291C213.356 31.7695 212.866 32.2025 212.388 32.5898C211.932 32.9544 211.51 33.2507 211.123 33.4785C210.758 33.7292 210.462 33.8545 210.234 33.8545C210.098 33.8545 209.904 33.8089 209.653 33.7178C209.425 33.6494 209.186 33.5127 208.936 33.3076C208.708 33.1253 208.514 32.8633 208.354 32.5215C208.172 32.1569 208.081 31.7012 208.081 31.1543C208.081 30.6986 208.218 30.1745 208.491 29.582C208.765 28.9668 209.129 28.3516 209.585 27.7363C210.041 27.1211 210.553 26.5173 211.123 25.9248C211.693 25.3324 212.274 24.8083 212.866 24.3525C213.459 23.874 214.04 23.498 214.609 23.2246C215.179 22.9284 215.68 22.7803 216.113 22.7803C216.478 22.7803 216.808 22.8486 217.104 22.9854C217.424 23.1221 217.697 23.3044 217.925 23.5322C218.153 23.7601 218.324 24.0107 218.438 24.2842C218.574 24.5576 218.643 24.8424 218.643 25.1387C218.643 25.1615 218.631 25.1729 218.608 25.1729C218.608 25.1729 218.608 25.1842 218.608 25.207C219.11 24.6374 219.463 24.3525 219.668 24.3525C219.782 24.3525 219.907 24.4209 220.044 24.5576C220.181 24.6715 220.306 24.8311 220.42 25.0361C220.534 25.2184 220.625 25.4121 220.693 25.6172C220.762 25.8223 220.796 25.9932 220.796 26.1299C220.796 26.1982 220.659 26.4261 220.386 26.8135C220.135 27.1781 219.816 27.6224 219.429 28.1465C219.064 28.6706 218.654 29.2402 218.198 29.8555C217.743 30.4479 217.321 31.029 216.934 31.5986C216.569 32.1455 216.25 32.6468 215.977 33.1025C215.726 33.5583 215.601 33.8887 215.601 34.0938C215.601 34.1393 215.623 34.1621 215.669 34.1621C215.806 34.1621 216.102 33.9684 216.558 33.5811C217.013 33.2165 217.549 32.7493 218.164 32.1797C218.779 31.5872 219.44 30.9378 220.146 30.2314C220.876 29.5251 221.4 29.0238 221.719 28.7275C222.061 28.4085 222.391 28.1009 222.71 27.8047ZM210.029 32.8291C210.303 32.8291 210.667 32.6924 211.123 32.4189C211.579 32.1227 212.08 31.7467 212.627 31.291C213.197 30.8353 213.789 30.3112 214.404 29.7188C215.02 29.1035 215.623 28.4883 216.216 27.873C216.102 27.8275 215.999 27.7591 215.908 27.668C215.84 27.5768 215.806 27.4743 215.806 27.3604C215.806 27.292 215.897 27.1667 216.079 26.9844C216.284 26.8021 216.501 26.597 216.729 26.3691C216.956 26.1185 217.161 25.8451 217.344 25.5488C217.549 25.2526 217.651 24.9678 217.651 24.6943C217.651 24.4437 217.526 24.3184 217.275 24.3184C217.07 24.3184 216.74 24.4665 216.284 24.7627C215.828 25.0589 215.316 25.4577 214.746 25.959C214.199 26.4375 213.63 26.9844 213.037 27.5996C212.467 28.1921 211.932 28.7959 211.431 29.4111C210.952 30.0264 210.553 30.6074 210.234 31.1543C209.938 31.7012 209.79 32.1683 209.79 32.5557C209.79 32.738 209.87 32.8291 210.029 32.8291Z" fill="black"/>
<defs>
<clipPath id="clip0_205_304">
<rect width="52" height="52" fill="white" transform="translate(90)"/>
</clipPath>
<clipPath id="clip1_205_304">
<rect width="15.3803" height="12.8169" fill="white" transform="translate(122.225 23.0704)"/>
</clipPath>
</defs>
</svg>
