<svg width="25" height="24" viewBox="0 0 25 24" fill="none" xmlns="http://www.w3.org/2000/svg">
<path d="M20.3451 21L14.0451 14.7C13.5451 15.1 12.9701 15.4167 12.3201 15.65C11.6701 15.8833 10.9785 16 10.2451 16C8.42845 16 6.89095 15.3708 5.63262 14.1125C4.37428 12.8542 3.74512 11.3167 3.74512 9.5C3.74512 7.68333 4.37428 6.14583 5.63262 4.8875C6.89095 3.62917 8.42845 3 10.2451 3C12.0618 3 13.5993 3.62917 14.8576 4.8875C16.116 6.14583 16.7451 7.68333 16.7451 9.5C16.7451 10.2333 16.6285 10.925 16.3951 11.575C16.1618 12.225 15.8451 12.8 15.4451 13.3L21.7451 19.6L20.3451 21ZM10.2451 14C11.4951 14 12.5576 13.5625 13.4326 12.6875C14.3076 11.8125 14.7451 10.75 14.7451 9.5C14.7451 8.25 14.3076 7.1875 13.4326 6.3125C12.5576 5.4375 11.4951 5 10.2451 5C8.99512 5 7.93262 5.4375 7.05762 6.3125C6.18262 7.1875 5.74512 8.25 5.74512 9.5C5.74512 10.75 6.18262 11.8125 7.05762 12.6875C7.93262 13.5625 8.99512 14 10.2451 14Z" fill="#E8EAED"/>
</svg>
