<svg width="30" height="31" viewBox="0 0 30 31" fill="none" xmlns="http://www.w3.org/2000/svg">
<g clip-path="url(#clip0_11_577)">
<path d="M15 3.20117C19.0078 3.20117 19.4824 3.21875 21.0586 3.28906C22.5234 3.35352 23.3145 3.59961 23.8418 3.80469C24.5391 4.07422 25.043 4.40234 25.5645 4.92383C26.0918 5.45117 26.4141 5.94922 26.6836 6.64648C26.8887 7.17383 27.1348 7.9707 27.1992 9.42969C27.2695 11.0117 27.2871 11.4863 27.2871 15.4883C27.2871 19.4961 27.2695 19.9707 27.1992 21.5469C27.1348 23.0117 26.8887 23.8027 26.6836 24.3301C26.4141 25.0273 26.0859 25.5313 25.5645 26.0527C25.0371 26.5801 24.5391 26.9023 23.8418 27.1719C23.3145 27.377 22.5176 27.623 21.0586 27.6875C19.4766 27.7578 19.002 27.7754 15 27.7754C10.9922 27.7754 10.5176 27.7578 8.94141 27.6875C7.47656 27.623 6.68555 27.377 6.1582 27.1719C5.46094 26.9023 4.95703 26.5742 4.43555 26.0527C3.9082 25.5254 3.58594 25.0273 3.31641 24.3301C3.11133 23.8027 2.86523 23.0059 2.80078 21.5469C2.73047 19.9648 2.71289 19.4902 2.71289 15.4883C2.71289 11.4805 2.73047 11.0059 2.80078 9.42969C2.86523 7.96484 3.11133 7.17383 3.31641 6.64648C3.58594 5.94922 3.91406 5.44531 4.43555 4.92383C4.96289 4.39648 5.46094 4.07422 6.1582 3.80469C6.68555 3.59961 7.48242 3.35352 8.94141 3.28906C10.5176 3.21875 10.9922 3.20117 15 3.20117ZM15 0.5C10.9277 0.5 10.418 0.517578 8.81836 0.587891C7.22461 0.658203 6.12891 0.916016 5.17969 1.28516C4.18945 1.67187 3.35156 2.18164 2.51953 3.01953C1.68164 3.85156 1.17188 4.68945 0.785156 5.67383C0.416016 6.62891 0.158203 7.71875 0.0878906 9.3125C0.0175781 10.918 0 11.4277 0 15.5C0 19.5723 0.0175781 20.082 0.0878906 21.6816C0.158203 23.2754 0.416016 24.3711 0.785156 25.3203C1.17188 26.3105 1.68164 27.1484 2.51953 27.9805C3.35156 28.8125 4.18945 29.3281 5.17383 29.709C6.12891 30.0781 7.21875 30.3359 8.8125 30.4062C10.4121 30.4766 10.9219 30.4941 14.9941 30.4941C19.0664 30.4941 19.5762 30.4766 21.1758 30.4062C22.7695 30.3359 23.8652 30.0781 24.8145 29.709C25.7988 29.3281 26.6367 28.8125 27.4688 27.9805C28.3008 27.1484 28.8164 26.3105 29.1973 25.3262C29.5664 24.3711 29.8242 23.2813 29.8945 21.6875C29.9648 20.0879 29.9824 19.5781 29.9824 15.5059C29.9824 11.4336 29.9648 10.9238 29.8945 9.32422C29.8242 7.73047 29.5664 6.63477 29.1973 5.68555C28.8281 4.68945 28.3184 3.85156 27.4805 3.01953C26.6484 2.1875 25.8105 1.67188 24.8262 1.29102C23.8711 0.921875 22.7813 0.664062 21.1875 0.59375C19.582 0.517578 19.0723 0.5 15 0.5Z" fill="#000100"/>
<path d="M15 7.79492C10.7461 7.79492 7.29492 11.2461 7.29492 15.5C7.29492 19.7539 10.7461 23.2051 15 23.2051C19.2539 23.2051 22.7051 19.7539 22.7051 15.5C22.7051 11.2461 19.2539 7.79492 15 7.79492ZM15 20.498C12.2402 20.498 10.002 18.2598 10.002 15.5C10.002 12.7402 12.2402 10.502 15 10.502C17.7598 10.502 19.998 12.7402 19.998 15.5C19.998 18.2598 17.7598 20.498 15 20.498Z" fill="#000100"/>
<path d="M24.8086 7.49024C24.8086 8.48633 24 9.28907 23.0098 9.28907C22.0137 9.28907 21.2109 8.48047 21.2109 7.49024C21.2109 6.49414 22.0195 5.69141 23.0098 5.69141C24 5.69141 24.8086 6.5 24.8086 7.49024Z" fill="#000100"/>
</g>
<defs>
<clipPath id="clip0_11_577">
<rect width="30" height="30" fill="white" transform="translate(0 0.5)"/>
</clipPath>
</defs>
</svg>
