<svg width="67" height="68" viewBox="0 0 67 68" fill="none" xmlns="http://www.w3.org/2000/svg">
<path d="M36.34 1.94617V6.42839C40.7733 6.42839 44.9266 7.54894 48.7998 9.79005C52.4865 11.9845 55.4264 14.9259 57.6197 18.6144C59.8597 22.4897 60.9797 26.6451 60.9797 31.0806H65.4596C65.4596 25.8047 64.1296 20.9022 61.4697 16.3733C58.903 11.9845 55.4264 8.50608 51.0398 5.93815C46.5132 3.27683 41.6133 1.94617 36.34 1.94617ZM13.1703 8.6695C11.9103 8.6695 10.8136 9.06636 9.88032 9.86009L2.67041 17.2137L2.88041 17.0737C1.71376 18.0541 0.943765 19.2681 0.570436 20.7155C0.243773 22.1629 0.337106 23.5635 0.850433 24.9176C2.15708 28.5594 3.90706 32.2945 6.10037 36.1231C9.18033 41.3991 12.8436 46.1381 17.0902 50.3401C23.9035 57.2036 32.3734 62.6196 42.4999 66.5882H42.5699C43.9232 67.0551 45.2765 67.1485 46.6299 66.8683C48.0298 66.5882 49.2665 65.9812 50.3398 65.0474L57.4097 57.9739C58.3431 57.0401 58.8097 55.8962 58.8097 54.5422C58.8097 53.1415 58.3431 51.9743 57.4097 51.0405L48.2398 41.7959C47.3065 40.8621 46.1399 40.3952 44.7399 40.3952C43.3399 40.3952 42.1733 40.8621 41.2399 41.7959L36.83 46.2781C33.2834 44.5973 30.2034 42.5196 27.5901 40.045C24.9768 37.5238 22.9002 34.4656 21.3602 30.8705L25.8401 26.3883C26.8201 25.3611 27.3101 24.1472 27.3101 22.7465C27.3101 21.2991 26.7501 20.1318 25.6301 19.2447L25.8401 19.4548L16.4602 9.86009C15.5269 9.06636 14.4303 8.6695 13.1703 8.6695ZM36.34 10.9106V15.3928C39.1866 15.3928 41.7999 16.0932 44.1799 17.4939C46.6065 18.8946 48.5198 20.8088 49.9198 23.2367C51.3198 25.6179 52.0198 28.2325 52.0198 31.0806H56.4997C56.4997 27.4388 55.5898 24.0538 53.7698 20.9256C51.9498 17.8907 49.5232 15.4629 46.4899 13.642C43.3632 11.8211 39.9799 10.9106 36.34 10.9106ZM13.1703 13.1517C13.3103 13.1517 13.4736 13.2218 13.6603 13.3618L22.8302 22.7465C22.8768 22.9332 22.8302 23.0966 22.6902 23.2367L16.0402 29.82L16.5302 31.2207L17.4402 33.1816C18.1869 34.7691 19.0502 36.3099 20.0302 37.8039C21.3835 39.905 22.8768 41.7025 24.5101 43.1966C26.7034 45.3443 29.3401 47.3053 32.42 49.0795C33.96 49.9666 35.2667 50.6203 36.34 51.0405L37.74 51.6708L44.5299 44.8774C44.6232 44.7841 44.6932 44.7374 44.7399 44.7374C44.7866 44.7374 44.8566 44.7841 44.9499 44.8774L54.3998 54.3321C54.4931 54.4255 54.5398 54.4955 54.5398 54.5422C54.5398 54.5422 54.4931 54.5889 54.3998 54.6823L47.3999 61.6157C46.3732 62.5028 45.2532 62.7363 44.0399 62.3161C34.52 58.6276 26.5868 53.5851 20.2402 47.1886C16.3202 43.2666 12.8903 38.8078 9.95032 33.812C7.85035 30.2168 6.21703 26.7385 5.05038 23.3768V23.3068C4.86372 22.8865 4.84038 22.3963 4.98038 21.836C5.12038 21.2291 5.37704 20.7622 5.75037 20.4353L12.6803 13.3618C12.8203 13.2218 12.9836 13.1517 13.1703 13.1517ZM36.34 19.8751V24.3573C38.2066 24.3573 39.7933 25.0109 41.0999 26.3182C42.4066 27.6256 43.0599 29.213 43.0599 31.0806H47.5399C47.5399 29.0729 47.0265 27.2054 45.9999 25.4778C45.0199 23.7503 43.6666 22.3963 41.9399 21.4158C40.2133 20.3886 38.3466 19.8751 36.34 19.8751Z" fill="black"/>
</svg>
