<svg width="30" height="31" viewBox="0 0 30 31" fill="none" xmlns="http://www.w3.org/2000/svg">
<g clip-path="url(#clip0_11_576)">
<path d="M15 30.5C23.2843 30.5 30 23.7843 30 15.5C30 7.21573 23.2843 0.5 15 0.5C6.71573 0.5 0 7.21573 0 15.5C0 23.7843 6.71573 30.5 15 30.5Z" fill="url(#paint0_linear_11_576)"/>
<path fill-rule="evenodd" clip-rule="evenodd" d="M6.78984 15.3417C11.1626 13.4365 14.0785 12.1805 15.5375 11.5737C19.7032 9.84105 20.5687 9.54007 21.1329 9.53014C21.257 9.52795 21.5345 9.5587 21.7142 9.70453C21.8659 9.82767 21.9077 9.994 21.9277 10.1107C21.9476 10.2275 21.9725 10.4934 21.9527 10.7012C21.727 13.0731 20.7502 18.829 20.2533 21.4855C20.043 22.6095 19.629 22.9864 19.2282 23.0233C18.3571 23.1035 17.6957 22.4477 16.852 21.8946C15.5318 21.0292 14.786 20.4905 13.5045 19.646C12.0235 18.6701 12.9836 18.1337 13.8276 17.2571C14.0484 17.0277 17.8864 13.5367 17.9607 13.22C17.97 13.1804 17.9786 13.0328 17.8909 12.9548C17.8032 12.8769 17.6738 12.9035 17.5804 12.9247C17.4479 12.9548 15.3389 14.3488 11.2533 17.1067C10.6546 17.5178 10.1124 17.7181 9.62658 17.7076C9.091 17.696 8.06077 17.4047 7.29489 17.1558C6.35551 16.8504 5.60892 16.689 5.67393 16.1704C5.70779 15.9003 6.07976 15.6241 6.78984 15.3417Z" fill="white"/>
</g>
<defs>
<linearGradient id="paint0_linear_11_576" x1="15" y1="0.5" x2="15" y2="30.2775" gradientUnits="userSpaceOnUse">
<stop stop-color="#2AABEE"/>
<stop offset="1" stop-color="#229ED9"/>
</linearGradient>
<clipPath id="clip0_11_576">
<rect width="30" height="30" fill="white" transform="translate(0 0.5)"/>
</clipPath>
</defs>
</svg>
