<svg width="30" height="31" viewBox="0 0 30 31" fill="none" xmlns="http://www.w3.org/2000/svg">
<g clip-path="url(#clip0_11_575)">
<path d="M0 14.9C0 8.11175 0 4.71766 2.10883 2.60883C4.21766 0.5 7.61175 0.5 14.4 0.5H15.6C22.3883 0.5 25.7823 0.5 27.8912 2.60883C30 4.71766 30 8.11175 30 14.9V16.1C30 22.8883 30 26.2823 27.8912 28.3912C25.7823 30.5 22.3883 30.5 15.6 30.5H14.4C7.61175 30.5 4.21766 30.5 2.10883 28.3912C0 26.2823 0 22.8883 0 16.1V14.9Z" fill="#0077FF"/>
<path d="M15.9625 22.1126C9.125 22.1126 5.22506 17.4251 5.06256 9.62512H8.48756C8.60006 15.3501 11.125 17.7751 13.125 18.2751V9.62512H16.3501V14.5626C18.3251 14.3501 20.3999 12.1001 21.0999 9.62512H24.3249C23.7874 12.6751 21.5374 14.9251 19.9374 15.8501C21.5374 16.6001 24.1001 18.5626 25.0751 22.1126H21.5249C20.7624 19.7376 18.8626 17.9001 16.3501 17.6501V22.1126H15.9625Z" fill="white"/>
</g>
<defs>
<clipPath id="clip0_11_575">
<rect width="30" height="30" fill="white" transform="translate(0 0.5)"/>
</clipPath>
</defs>
</svg>
